<?xml version="1.0" standalone="no"?>
<!DOCTYPE svg PUBLIC "-//W3C//DTD SVG 20010904//EN"
 "http://www.w3.org/TR/2001/REC-SVG-20010904/DTD/svg10.dtd">
<svg version="1.0" xmlns="http://www.w3.org/2000/svg"
 width="700.000000pt" height="700.000000pt" viewBox="0 0 700.000000 700.000000"
 preserveAspectRatio="xMidYMid meet">
<metadata>
Created by potrace 1.14, written by Peter Selinger 2001-2017
</metadata>
<g transform="translate(0.000000,700.000000) scale(0.100000,-0.100000)"
fill="#000000" stroke="none">
<path d="M2581 5756 l-914 -914 98 1 c59 1 103 -2 109 -9 7 -6 10 -50 10 -107
l-2 -97 42 -1 c22 0 120 -1 216 -2 l174 -2 0 -212 c0 -117 3 -214 6 -214 3 -1
51 -2 108 -3 l102 -2 0 108 0 108 108 0 109 0 1 88 c0 48 1 97 1 109 1 22 4
23 106 20 87 -2 105 1 106 13 1 8 2 57 3 109 l1 93 90 0 c50 0 98 -1 108 -1
15 -1 17 -13 17 -106 0 -77 3 -105 13 -106 6 0 54 0 105 0 89 2 92 1 93 -21 1
-13 2 -61 3 -108 l1 -85 107 -3 107 -3 3 -107 3 -107 105 0 105 0 0 215 1 215
107 1 107 2 0 -109 0 -109 109 0 109 0 -1 215 c-2 198 -1 215 16 216 9 0 58 2
107 2 84 2 90 1 91 -18 0 -11 1 -59 0 -107 0 -101 -15 -91 132 -88 l87 1 0
-111 0 -111 107 3 108 3 0 105 0 105 90 2 c50 1 98 2 108 2 15 1 17 13 17 109
l0 107 106 -1 105 -2 -18 21 c-49 55 -1804 1807 -1810 1807 -5 0 -419 -411
-922 -914z m2154 -664 c-2 -3 -2353 -5 -2447 -3 -23 1 62 90 594 622 l621 621
618 -618 c340 -341 616 -620 614 -622z"/>
<path d="M2964 4303 l1 -108 108 0 107 0 0 107 0 108 -109 0 -109 0 2 -107z"/>
<path d="M4045 4191 c-3 -2 -5 -51 -5 -108 l0 -103 108 0 109 0 -1 107 -1 108
-103 0 c-56 1 -105 -1 -107 -4z"/>
<path d="M1065 3552 c-209 -22 -392 -160 -442 -332 -16 -56 -20 -155 -8 -213
17 -79 82 -193 135 -234 13 -10 12 -14 -10 -29 -14 -9 -51 -44 -83 -76 -185
-187 -178 -513 15 -682 277 -242 808 -203 1009 74 95 131 109 341 33 493 -35
69 -85 129 -139 168 -25 18 -45 35 -45 38 0 3 17 24 36 46 160 178 146 455
-32 614 -107 96 -302 151 -469 133z m201 -272 c79 -36 118 -96 123 -186 6
-124 -78 -211 -215 -222 -185 -14 -308 122 -258 287 21 71 87 125 168 138 17
3 32 6 34 8 9 8 112 -9 148 -25z m25 -692 c110 -41 170 -125 170 -240 0 -105
-42 -176 -133 -222 -137 -68 -338 -50 -432 39 -99 93 -104 265 -10 359 83 83
272 113 405 64z"/>
<path d="M4953 3438 l-142 -103 -1 -147 0 -148 -52 -1 c-29 -1 -73 -2 -98 -3
l-45 -1 -1 -110 c0 -60 1 -115 3 -121 3 -8 36 -11 96 -10 l92 1 1 -340 c1
-284 3 -349 17 -396 58 -196 272 -279 537 -209 l35 9 -1 126 c0 69 -3 127 -5
130 -3 2 -25 -3 -49 -12 -66 -23 -141 -25 -181 -5 -61 30 -63 43 -64 384 0
202 3 309 10 311 5 2 72 3 147 2 89 -1 138 2 141 9 2 6 3 61 2 121 l-1 110
-120 2 c-65 1 -133 2 -149 2 l-30 1 0 250 c0 138 0 250 0 250 0 0 -64 -46
-142 -102z"/>
<path d="M2650 2690 l0 -841 378 1 c337 1 384 3 445 20 157 44 272 132 332
254 92 189 57 386 -97 538 -37 37 -79 70 -93 74 -27 7 -27 7 24 51 54 48 103
124 120 190 12 43 16 150 7 188 -15 69 -30 109 -60 153 -61 91 -139 145 -264
185 -62 19 -95 21 -429 25 l-363 3 0 -841z m688 554 c105 -27 154 -87 155
-189 1 -85 -33 -144 -100 -176 -45 -22 -61 -23 -244 -25 l-195 -1 1 201 c1
111 3 202 4 203 7 9 337 -3 379 -13z m50 -664 c55 -14 121 -66 146 -115 25
-48 29 -133 9 -189 -25 -72 -77 -117 -156 -131 -44 -8 -426 -13 -428 -5 -1 3
-2 104 -3 225 l-2 220 65 5 c106 8 325 2 369 -10z"/>
<path d="M4119 3523 c-1 -11 -1 -212 0 -239 1 -21 5 -21 149 -20 l147 1 3 133
3 132 -151 0 c-82 0 -150 -3 -151 -7z"/>
<path d="M5975 3059 c-160 -16 -286 -90 -344 -204 -64 -126 -42 -297 50 -380
55 -49 170 -103 258 -120 81 -15 192 -58 221 -85 29 -27 32 -35 27 -71 -7 -56
-31 -88 -85 -111 -57 -26 -150 -27 -207 -3 -50 22 -111 84 -131 136 -9 22 -20
39 -24 37 -3 -2 -57 -25 -118 -51 l-111 -49 12 -26 c80 -187 273 -306 492
-304 292 3 475 172 460 425 -2 34 -14 81 -29 113 -50 109 -145 170 -361 234
-183 54 -228 87 -206 153 22 67 128 97 231 66 42 -13 107 -66 140 -116 15 -21
15 -21 117 36 56 31 105 60 109 63 4 4 -5 25 -19 47 -99 149 -282 229 -482
210z"/>
<path d="M4129 3032 c-1 -4 -2 -271 -3 -594 l-1 -588 142 0 143 0 0 60 c1 33
1 278 1 545 0 267 0 507 -1 534 l0 49 -140 0 c-77 0 -141 -3 -141 -6z"/>
<path d="M2319 1508 c-1 -13 -1 -29 0 -35 1 -8 -11 -13 -34 -13 -26 0 -35 -4
-36 -17 -4 -69 -3 -186 1 -192 3 -4 15 -7 28 -8 41 -1 43 -3 42 -25 -4 -48 -5
-48 105 -48 93 0 105 -2 106 -17 5 -107 2 -193 -6 -194 -14 -1 -97 -2 -117 0
-14 1 -18 10 -18 36 l0 35 -70 0 c-72 0 -72 0 -72 -45 0 -29 2 -31 35 -29 32
3 34 1 35 -28 0 -16 4 -33 7 -37 8 -7 274 -9 276 -1 1 3 2 19 3 35 1 27 4 30
36 31 l35 0 1 107 1 106 -36 3 c-32 3 -36 6 -37 33 -1 17 -2 32 -3 35 0 3 -48
5 -106 4 l-105 -1 0 108 0 109 70 0 c68 0 70 -1 71 -25 1 -14 2 -30 3 -37 1
-8 18 -12 49 -11 98 2 93 0 93 36 -1 29 -4 32 -36 37 -28 4 -35 10 -36 28 -1
12 -2 27 -3 32 -1 6 -55 10 -141 10 -138 0 -140 0 -141 -22z"/>
<path d="M2750 1470 c-1 -33 -1 -161 -1 -285 0 -124 0 -242 1 -263 l0 -37 70
-1 70 0 0 108 0 107 108 3 107 3 0 30 c1 27 4 30 37 33 l36 3 -2 142 -1 142
-30 3 c-35 4 -45 16 -39 49 l4 23 -180 0 -180 0 0 -60z m282 -22 c2 -7 3 -71
3 -143 l-1 -130 -72 -3 -73 -3 2 146 1 145 68 0 c46 0 69 -4 72 -12z"/>
<path d="M3320 1495 c0 -33 -2 -35 -35 -35 l-35 0 0 -288 0 -288 70 0 70 0 1
46 c1 25 1 73 1 108 l-1 62 72 0 72 0 0 -105 c0 -64 3 -106 10 -108 5 -2 37
-3 70 -3 l60 1 2 289 2 288 -22 -6 c-32 -8 -50 8 -49 43 l1 31 -145 0 -144 0
0 -35z m215 -180 l0 -140 -72 -3 -72 -3 1 138 c0 76 2 142 5 146 3 4 35 7 71
5 l67 -3 0 -140z"/>
<path d="M3821 1523 c1 -5 1 -20 0 -35 -1 -25 -5 -28 -36 -28 l-35 0 0 -250
c0 -193 3 -250 13 -251 6 -1 22 0 35 1 12 1 22 -4 23 -12 1 -7 2 -24 2 -38 l2
-25 140 0 140 0 3 38 c2 22 8 37 15 36 46 -6 57 1 57 36 l0 35 -73 0 -73 0 3
-37 2 -38 -72 1 -72 0 0 251 -1 251 72 1 c68 1 71 0 71 -21 1 -59 -9 -55 121
-49 18 1 22 7 22 36 0 33 -2 35 -35 35 -33 0 -35 2 -35 35 l0 35 -145 0 c-80
0 -144 -3 -144 -7z"/>
<path d="M4252 1208 l3 -323 213 0 213 0 -3 35 -3 35 -132 1 c-73 0 -136 4
-140 8 -5 4 -8 52 -8 107 l0 99 107 0 108 0 0 34 c0 19 -6 36 -12 38 -7 2 -54
3 -105 2 -59 0 -93 3 -96 10 -2 6 -3 54 -2 106 l1 95 44 2 c25 1 90 2 145 2
l101 1 -4 35 -4 35 -214 0 -214 0 2 -322z"/>
</g>
</svg>
