<?xml version="1.0" encoding="utf-8"?>
<!-- Generator: Adobe Illustrator 16.0.0, SVG Export Plug-In . SVG Version: 6.00 Build 0)  -->
<!DOCTYPE svg PUBLIC "-//W3C//DTD SVG 1.1//EN" "http://www.w3.org/Graphics/SVG/1.1/DTD/svg11.dtd">
<svg version="1.1" id="Layer_1" xmlns="http://www.w3.org/2000/svg" xmlns:xlink="http://www.w3.org/1999/xlink" x="0px" y="0px"
	 width="221px" height="43.029px" viewBox="0 0 221 43.029" enable-background="new 0 0 221 43.029" xml:space="preserve">
<g>
	<g>
		<g>
			<path fill="#272367" d="M14.063,1.455c3.15,0,6.038,0.938,7.95,2.25l-2.063,6.524c-1.237-1.012-3.038-1.95-5.512-1.95
				c-3.975,0-6.638,2.924-6.638,6.749c0,3.9,2.663,6.825,6.638,6.826c2.475,0,4.275-0.937,5.512-1.949l2.063,6.525
				c-1.912,1.313-4.8,2.25-7.95,2.25C5.55,28.678,0,22.64,0,15.027C0,7.49,5.55,1.453,14.063,1.455z"/>
			<path fill="#272367" d="M36.825,14.994c-0.263-0.075-0.675-0.15-1.163-0.15c-2.438,0-3.788,1.538-3.788,4.125v9.225L24.6,28.192
				V8.393l7.087,0v2.513c0.975-1.875,3-3,5.138-3V14.994z"/>
			<path fill="#272367" d="M48.225,7.908c6.525,0,9.975,4.051,9.975,10.988c0,0.413-0.038,0.938-0.075,1.313L45.75,20.208
				c0.375,1.538,1.65,2.4,3.45,2.4c1.837,0,3.188-1.2,3.563-1.762l4.95,3.45c-0.45,0.975-3.225,4.387-8.625,4.386
				c-6.787,0-10.8-4.876-10.8-10.651C38.287,12.407,42.149,7.907,48.225,7.908z M50.812,15.783
				c-0.075-0.899-0.825-2.137-2.438-2.137c-1.725,0-2.363,1.387-2.438,2.137H50.812z"/>
			<path fill="#272367" d="M81.149,28.199l-6.75,0v-1.275c-0.75,0.75-2.475,1.762-5.063,1.762c-5.775,0-9.825-4.313-9.825-10.389
				c0-6.112,3.6-10.387,9.337-10.386c2.55,0,4.313,1.125,5.025,1.726v-8.55l7.275,0.001V28.199z M70.461,14.135
				c-2.325,0-3.675,1.725-3.675,4.162c0,2.512,1.388,4.125,3.675,4.125c2.4,0.001,3.638-1.874,3.638-4.124
				C74.099,15.673,72.637,14.135,70.461,14.135z"/>
			<path fill="#272367" d="M88.049,0c2.138,0,3.9,1.538,3.9,3.638c0,2.063-1.762,3.6-3.9,3.6c-2.138,0-3.862-1.538-3.862-3.6
				C84.187,1.537,85.911,0,88.049,0z M84.411,8.399L91.687,8.4v19.8l-7.275-0.001V8.399z"/>
			<path fill="#272367" d="M95.961,4.238l7.088,0v4.163l3.187,0v5.737h-3.187v6.487c0,1.387,1.462,1.575,2.587,1.575
				c0.263,0,0.712-0.038,0.712-0.038v6.113c0,0-0.825,0.225-2.625,0.225c-5.1,0-7.95-2.476-7.95-7.801v-6.563l-1.875,0V8.4l2.062,0
				V4.238z"/>
		</g>
	</g>
	<g>
		<g>
			<path fill="#272367" d="M139.289,1.94l8.55,0.001c8.438,0.001,14.025,4.914,14.025,13.126c0,8.1-5.513,13.124-14.025,13.123
				l-8.55-0.001V1.94z M147.688,21.891c3.825,0,6.413-2.287,6.413-6.824c0-4.612-2.588-6.825-6.413-6.826h-0.938v13.65H147.688z"/>
			<path fill="#272367" d="M173.413,7.907c6.525,0,9.975,4.051,9.975,10.988c0,0.413-0.038,0.938-0.075,1.313l-12.375-0.001
				c0.375,1.538,1.65,2.4,3.45,2.4c1.838,0,3.188-1.2,3.563-1.762l4.95,3.451c-0.45,0.975-3.225,4.387-8.625,4.387
				c-6.787-0.001-10.8-4.876-10.8-10.651C163.476,12.405,167.338,7.906,173.413,7.907z M176,15.782
				c-0.075-0.9-0.825-2.138-2.438-2.138c-1.725,0-2.362,1.387-2.438,2.137L176,15.782z"/>
			<path fill="#272367" d="M185.638,1.083l7.274,0.001v8.549c0.713-0.6,2.476-1.724,5.025-1.724c5.737,0,9.337,4.276,9.337,10.389
				c0,6.075-4.05,10.387-9.825,10.386c-2.587,0-4.312-1.013-5.063-1.763v1.275l-6.75,0V1.083z M196.325,22.421
				c2.287,0,3.675-1.612,3.675-4.125c0-2.437-1.35-4.162-3.675-4.163c-2.175,0-3.638,1.537-3.638,4.163
				C192.688,20.546,193.925,22.421,196.325,22.421z"/>
			<path fill="#272367" d="M210.612,4.236l7.088,0v4.163h3.187v5.738l-3.187,0v6.487c0,1.388,1.462,1.575,2.587,1.576
				c0.263,0,0.713-0.038,0.713-0.038v6.112c0,0-0.825,0.225-2.625,0.225c-5.1,0-7.95-2.476-7.95-7.801v-6.563h-1.875V8.398l2.063,0
				V4.236z"/>
		</g>
	</g>
	<g>
		<g>
			<path fill="#272367" d="M129.853,25.492c-1.725,1.837-4.5,3.187-7.913,3.186c-5.475,0-8.812-3.488-8.812-7.651
				c0-3.3,2.175-5.587,4.725-6.974c-1.65-1.575-3.187-3.375-3.187-6.15c0-3.187,2.325-6.45,6.937-6.449
				c4.35,0,7.05,2.588,7.05,6.414c0,3.337-2.4,5.549-6.413,7.762l7.388,7.088c1.313-2.287,1.538-4.05,1.538-7.049h1.837
				c0,3.262-0.262,5.662-1.913,8.362l2.775,2.738l-1.425,1.424L129.853,25.492z M128.578,24.217l-9.337-8.889
				c-2.175,0.862-4.237,2.737-4.237,5.7c0,3.675,3.075,5.888,6.937,5.888C124.678,26.917,127.116,25.716,128.578,24.217z
				 M120.891,14.466c3.188-1.537,5.887-3.749,5.887-6.562c0-2.775-2.063-4.763-5.175-4.763c-3,0-5.063,2.024-5.063,4.799
				C116.541,10.641,118.678,12.553,120.891,14.466z"/>
		</g>
	</g>
	<g>
		<rect x="139.231" y="35.119" fill="#54A5D7" width="18.524" height="7.91"/>
		<rect x="160.313" y="35.119" fill="#96CCEF" width="18.524" height="7.91"/>
		<rect x="181.394" y="35.119" fill="#272367" width="18.524" height="7.91"/>
		<rect x="202.475" y="35.119" fill="#F26722" width="18.524" height="7.91"/>
	</g>
</g>
</svg>
