<?xml version="1.0" encoding="UTF-8"?>
<svg id="Layer_2" xmlns="http://www.w3.org/2000/svg" xmlns:xlink="http://www.w3.org/1999/xlink"
     viewBox="0 0 1970.29 659.67">
    <defs>
        <style>.cls-1{fill:url(#linear-gradient);}.cls-2{fill:#fff;}</style>
        <linearGradient id="linear-gradient" x1="0" y1="277.26" x2="592" y2="277.26"
                        gradientTransform="matrix(1, 0, 0, 1, 0, 0)" gradientUnits="userSpaceOnUse">
            <stop offset="0" stop-color="#c3d1d4"/>
            <stop offset=".15" stop-color="#b6cacb"/>
            <stop offset=".33" stop-color="#a3c1bd"/>
            <stop offset=".5" stop-color="#8aafb4"/>
            <stop offset=".67" stop-color="#6d9bab"/>
            <stop offset=".75" stop-color="#5e93a3"/>
            <stop offset=".92" stop-color="#37818e"/>
            <stop offset="1" stop-color="#237784"/>
        </linearGradient>
    </defs>
    <g id="Layer_1-2">
        <g>
            <path class="cls-1"
                  d="M434.09,238.66c-29.18,0-57.87,8.23-82.95,23.79-34.28,18.01-76.92,17.74-110.72-.46l-1.66-1.03c-.62-.37-1.22-.76-1.82-1.11l-.02,.02-1.37-.76c-36-21.67-57.47-59.49-57.47-101.18,0-65.14,52.99-118.13,118.13-118.13,56.92,0,105.78,40.62,116.15,96.57l.29,1.66h-110.92c-26.97,0-47.01,15.94-47.56,39.79h199.92v-19.89C454.09,70.84,383.27,0,296.21,0S138.28,70.84,138.28,157.92c0,57.91,31.72,111.13,82.79,138.87,34.45,21.9,54.98,59.19,54.98,99.79,0,65.13-53,118.13-118.13,118.13-56.95,0-105.79-40.62-116.15-96.59l-.3-1.65h108.29c30.34,0,49.74-13.38,50.19-39.8H0v19.91c0,87.08,70.83,157.93,157.91,157.93s157.92-70.85,157.92-157.93l.12-1.4c.47-39.69,20.69-76.19,54.31-97.87l1.69-.9c.8-.41,1.61-.83,2.41-1.26l1-.94c17.91-10.31,38.22-15.76,58.72-15.76,65.14,0,118.13,52.99,118.13,118.13,0,56.95-40.62,105.79-96.58,116.15l-1.65,.31v-110.73c0-31.56-16.3-47.17-39.8-47.74v199.94h19.9c87.07,0,157.91-70.85,157.91-157.93s-70.84-157.92-157.91-157.92Z"/>
            <path class="cls-2"
                  d="M923.73,625.07c0-4.19,.64-8.24,1.9-12.12,1.26-3.88,3.12-7.31,5.59-10.28,2.46-2.95,5.49-5.3,9.06-7.07,3.57-1.76,7.69-2.64,12.3-2.64,2.04,0,3.98,.14,5.83,.42,1.85,.29,3.62,.82,5.29,1.61l-3.25,7.22c-.98-.56-2.14-.98-3.46-1.3-1.33-.29-3.04-.47-5.14-.47-3.01,0-5.73,.67-8.13,2-2.41,1.32-4.45,3.09-6.15,5.28-1.69,2.19-3,4.72-3.89,7.58-.88,2.87-1.34,5.84-1.34,8.93,0,1.6,.17,3.11,.5,4.54,.35,1.42,.95,2.66,1.8,3.74,.87,1.08,2.03,1.92,3.47,2.54,1.45,.61,3.27,.92,5.51,.92,1.11,0,2.27-.1,3.51-.33,1.24-.21,2.38-.48,3.43-.78,1.05-.32,1.97-.64,2.81-.97,.84-.33,1.43-.67,1.81-.98l.74,7.31c-1.18,.75-2.99,1.47-5.45,2.17-2.47,.71-5.28,1.06-8.42,1.06-2.97,0-5.59-.44-7.86-1.34-2.29-.89-4.2-2.15-5.74-3.78-1.53-1.65-2.72-3.58-3.51-5.84-.8-2.25-1.2-4.74-1.2-7.45Z"/>
            <path class="cls-2"
                  d="M1000.04,593.15c.74,0,1.57,.03,2.5,.1,.94,.06,1.85,.18,2.74,.33,.9,.15,1.72,.3,2.45,.45,.75,.16,1.3,.33,1.67,.51l-2.49,7.5c-1.23-.51-2.67-.87-4.27-1.12-1.59-.24-3.15-.37-4.63-.37-1.29,0-2.56,.1-3.83,.27-1.26,.19-2.36,.43-3.28,.74l-9.81,40.71h-8.61l11.11-46.25c2.46-.86,5.11-1.57,7.95-2.08,2.85-.52,5.67-.79,8.51-.79Z"/>
            <path class="cls-2"
                  d="M1036.3,643.48c-3.14,0-5.86-.44-8.13-1.34-2.28-.89-4.21-2.12-5.73-3.7-1.54-1.58-2.68-3.4-3.43-5.51-.75-2.09-1.11-4.33-1.11-6.66,0-4.31,.65-8.47,1.95-12.48,1.3-4.01,3.13-7.56,5.54-10.64,2.4-3.09,5.33-5.54,8.79-7.35,3.45-1.82,7.37-2.74,11.74-2.74,2.54,0,4.71,.33,6.52,.97,1.82,.66,3.31,1.53,4.45,2.63,1.14,1.11,1.99,2.39,2.53,3.84,.56,1.46,.84,2.96,.84,4.49,0,2.91-.52,5.35-1.56,7.35-1.05,2-2.45,3.69-4.17,5.05s-3.74,2.4-6.05,3.14c-2.32,.74-4.71,1.33-7.22,1.76-2.49,.43-5.02,.72-7.59,.88-2.56,.15-4.98,.29-7.26,.41-.06,.5-.1,.9-.1,1.21v.73c0,1.43,.17,2.77,.52,4.03,.34,1.26,.96,2.36,1.88,3.32,.94,.96,2.21,1.72,3.84,2.27,1.64,.55,3.79,.83,6.44,.83,1.16,0,2.38-.1,3.65-.33,1.26-.21,2.46-.48,3.62-.83,1.13-.34,2.15-.68,3.05-1.02,.88-.33,1.52-.67,1.89-.97l.74,7.31c-1.23,.68-3.24,1.4-5.96,2.17-2.74,.77-5.97,1.15-9.68,1.15Zm-8.78-26.45c3.58-.13,6.84-.37,9.81-.69,2.95-.34,5.51-.93,7.67-1.76,2.15-.83,3.83-1.95,5.04-3.37,1.2-1.42,1.8-3.27,1.8-5.56,0-.55-.1-1.13-.31-1.75-.23-.61-.59-1.19-1.11-1.71-.53-.52-1.24-.96-2.17-1.3-.93-.33-2.08-.51-3.43-.51-2.16,0-4.19,.46-6.05,1.39-1.9,.91-3.57,2.14-5.06,3.66-1.46,1.51-2.74,3.26-3.78,5.27-1.04,2-1.85,4.12-2.4,6.34Z"/>
            <path class="cls-2"
                  d="M1105.77,642.85c-.32-.69-.63-1.45-.92-2.27-.31-.84-.56-1.72-.76-2.65-1.34,1.23-3.16,2.46-5.44,3.7-2.28,1.25-5.1,1.85-8.43,1.85-2.72,0-5.05-.43-6.98-1.29-1.95-.87-3.54-2.07-4.77-3.61-1.25-1.54-2.13-3.36-2.73-5.46-.58-2.09-.87-4.41-.87-6.94,0-4.13,.69-8.16,2.08-12.12,1.38-3.94,3.46-7.46,6.25-10.54,2.77-3.09,6.26-5.58,10.44-7.49,4.2-1.92,9.11-2.88,14.72-2.88,1.66,0,3.61,.18,5.83,.56,2.22,.37,4.13,.99,5.73,1.84l-7.12,29.05c-.32,1.42-.57,2.77-.78,4.07-.21,1.3-.33,2.66-.33,4.07s.13,2.85,.37,4.3c.25,1.45,.68,3.01,1.3,4.68l-7.58,1.12Zm-13.79-6.67c2.58,0,4.81-.56,6.67-1.67,1.84-1.11,3.45-2.42,4.81-3.88,.06-1.06,.15-2.15,.32-3.29,.14-1.14,.35-2.3,.6-3.47l5.53-22.94c-.3-.11-.8-.21-1.52-.27-.71-.06-1.34-.1-1.9-.1-3.51,0-6.68,.68-9.52,2.03-2.84,1.36-5.25,3.17-7.27,5.42-2,2.25-3.54,4.86-4.63,7.86-1.07,2.98-1.61,6.12-1.61,9.39,0,1.29,.12,2.61,.37,3.93,.24,1.32,.7,2.5,1.34,3.52,.66,1.01,1.52,1.84,2.59,2.5,1.08,.64,2.49,.97,4.21,.97Z"/>
            <path class="cls-2"
                  d="M1148.87,643.57c-4.63,0-8.01-1.02-10.17-3.04-2.16-2.04-3.24-5-3.24-8.88,0-2.53,.42-5.77,1.3-9.71l9.88-41.17,8.98-1.49-3.61,14.89h16.38l-1.77,7.22h-16.35l-5.1,21.27c-.74,2.91-1.11,5.43-1.11,7.59,0,2.04,.56,3.51,1.67,4.4,1.11,.88,2.96,1.34,5.54,1.34,1.8,0,3.55-.29,5.29-.88,1.72-.59,3.04-1.12,3.98-1.61l.65,7.3c-.93,.56-2.5,1.17-4.72,1.8-2.23,.66-4.75,.98-7.59,.98Z"/>
            <path class="cls-2"
                  d="M1197.81,643.48c-3.15,0-5.87-.44-8.13-1.34-2.29-.89-4.21-2.12-5.74-3.7-1.53-1.58-2.68-3.4-3.43-5.51-.73-2.09-1.1-4.33-1.1-6.66,0-4.31,.64-8.47,1.95-12.48,1.29-4.01,3.15-7.56,5.56-10.64,2.4-3.09,5.31-5.54,8.78-7.35,3.45-1.82,7.36-2.74,11.75-2.74,2.53,0,4.71,.33,6.53,.97,1.81,.66,3.29,1.53,4.43,2.63,1.14,1.11,2,2.39,2.55,3.84,.55,1.46,.82,2.96,.82,4.49,0,2.91-.51,5.35-1.56,7.35-1.06,2-2.44,3.69-4.17,5.05-1.72,1.36-3.74,2.4-6.06,3.14-2.31,.74-4.71,1.33-7.22,1.76-2.49,.43-5.02,.72-7.58,.88-2.56,.15-4.99,.29-7.25,.41-.08,.5-.1,.9-.1,1.21v.73c0,1.43,.17,2.77,.51,4.03,.33,1.26,.98,2.36,1.89,3.32,.92,.96,2.2,1.72,3.85,2.27,1.63,.55,3.78,.83,6.42,.83,1.17,0,2.39-.1,3.66-.33,1.26-.21,2.46-.48,3.6-.83,1.14-.34,2.15-.68,3.06-1.02,.89-.33,1.52-.67,1.9-.97l.74,7.31c-1.23,.68-3.24,1.4-5.98,2.17-2.73,.77-5.96,1.15-9.66,1.15Zm-8.79-26.45c3.59-.13,6.85-.37,9.8-.69,2.97-.34,5.52-.93,7.67-1.76,2.17-.83,3.85-1.95,5.06-3.37,1.2-1.42,1.79-3.27,1.79-5.56,0-.55-.1-1.13-.32-1.75-.22-.61-.6-1.19-1.11-1.71-.52-.52-1.25-.96-2.18-1.3-.93-.33-2.07-.51-3.43-.51-2.16,0-4.17,.46-6.06,1.39-1.88,.91-3.56,2.14-5.04,3.66-1.48,1.51-2.75,3.26-3.8,5.27-1.03,2-1.84,4.12-2.4,6.34Z"/>
            <path class="cls-2"
                  d="M1271.9,598.26l5.73-2.69,10.91,21-18.79,19.9-5.35-3.25,14.52-17.57-7.03-17.38Zm19.24,0l5.73-2.69,10.91,21-18.77,19.9-5.36-3.25,14.51-17.57-7.02-17.38Z"/>
            <path class="cls-2"
                  d="M1371.63,643.48c-3.15,0-5.86-.44-8.13-1.34-2.29-.89-4.21-2.12-5.74-3.7-1.53-1.58-2.68-3.4-3.43-5.51-.75-2.09-1.11-4.33-1.11-6.66,0-4.31,.64-8.47,1.95-12.48,1.29-4.01,3.13-7.56,5.55-10.64,2.39-3.09,5.33-5.54,8.78-7.35,3.45-1.82,7.37-2.74,11.75-2.74,2.53,0,4.71,.33,6.52,.97,1.82,.66,3.3,1.53,4.44,2.63,1.14,1.11,2,2.39,2.54,3.84,.56,1.46,.84,2.96,.84,4.49,0,2.91-.52,5.35-1.56,7.35-1.05,2-2.45,3.69-4.18,5.05-1.72,1.36-3.74,2.4-6.05,3.14-2.32,.74-4.72,1.33-7.22,1.76-2.49,.43-5.02,.72-7.59,.88-2.56,.15-4.98,.29-7.26,.41-.06,.5-.09,.9-.09,1.21v.73c0,1.43,.17,2.77,.51,4.03,.34,1.26,.96,2.36,1.89,3.32,.93,.96,2.2,1.72,3.83,2.27,1.65,.55,3.8,.83,6.44,.83,1.17,0,2.38-.1,3.66-.33,1.26-.21,2.46-.48,3.61-.83,1.14-.34,2.15-.68,3.06-1.02,.88-.33,1.51-.67,1.88-.97l.75,7.31c-1.23,.68-3.24,1.4-5.98,2.17-2.73,.77-5.95,1.15-9.66,1.15Zm-8.79-26.45c3.58-.13,6.84-.37,9.81-.69,2.96-.34,5.51-.93,7.67-1.76,2.16-.83,3.84-1.95,5.05-3.37,1.19-1.42,1.8-3.27,1.8-5.56,0-.55-.1-1.13-.32-1.75-.22-.61-.58-1.19-1.1-1.71-.53-.52-1.25-.96-2.17-1.3-.94-.33-2.08-.51-3.43-.51-2.15,0-4.18,.46-6.05,1.39-1.89,.91-3.56,2.14-5.06,3.66-1.46,1.51-2.74,3.26-3.78,5.27-1.04,2-1.84,4.12-2.4,6.34Z"/>
            <path class="cls-2"
                  d="M1447.29,632.75c0,1.42,.12,2.85,.37,4.3,.25,1.45,.68,3.01,1.29,4.68l-7.58,1.12c-.68-1.37-1.21-3-1.57-4.92-1.36,1.23-3.18,2.46-5.46,3.7-2.29,1.25-5.08,1.85-8.42,1.85-2.72,0-5.06-.41-7.03-1.24-1.98-.84-3.61-2.03-4.9-3.57-1.3-1.53-2.27-3.36-2.88-5.51-.62-2.12-.92-4.45-.92-6.98,0-4.13,.69-8.16,2.07-12.12,1.38-3.94,3.45-7.46,6.19-10.54,2.75-3.09,6.18-5.56,10.32-7.45,4.14-1.88,8.95-2.82,14.44-2.82,.68,0,1.35,.03,2.02,.09,.69,.06,1.4,.17,2.15,.29l5.18-21.66,8.97-1.49-13.04,54.12c-.31,1.42-.59,2.77-.84,4.07-.25,1.3-.37,2.66-.37,4.07Zm-19.61,3.43c2.6,0,4.79-.55,6.62-1.63,1.82-1.06,3.39-2.33,4.75-3.74,.06-.98,.17-2.04,.32-3.17,.16-1.14,.4-2.4,.7-3.76l5.56-23.13c-.56-.11-1.18-.19-1.85-.24-.69-.02-1.32-.05-1.95-.05-3.51,0-6.69,.68-9.53,2.04-2.84,1.35-5.25,3.17-7.26,5.46-2,2.28-3.55,4.9-4.63,7.91-1.07,2.98-1.6,6.12-1.6,9.39,0,1.41,.15,2.77,.45,4.06,.31,1.3,.81,2.46,1.49,3.47,.68,1.02,1.59,1.84,2.73,2.46,1.14,.62,2.54,.92,4.21,.92Z"/>
            <path class="cls-2"
                  d="M1476.61,642.28h-8.6l11.56-48.11h8.62l-11.57,48.11Zm9.98-56.8c-1.41,0-2.6-.43-3.56-1.29-.95-.87-1.42-2.07-1.42-3.61,0-1.98,.62-3.53,1.85-4.67,1.23-1.14,2.61-1.72,4.15-1.72,1.43,0,2.63,.46,3.62,1.34,.99,.89,1.48,2.14,1.48,3.74,0,1.85-.64,3.35-1.94,4.48-1.3,1.15-2.68,1.72-4.17,1.72Z"/>
            <path class="cls-2"
                  d="M1516.76,643.57c-4.63,0-8.03-1.02-10.18-3.04-2.15-2.04-3.23-5-3.23-8.88,0-2.53,.42-5.77,1.3-9.71l9.89-41.17,8.98-1.49-3.6,14.89h16.37l-1.77,7.22h-16.37l-5.08,21.27c-.75,2.91-1.1,5.43-1.1,7.59,0,2.04,.54,3.51,1.65,4.4,1.13,.88,2.97,1.34,5.56,1.34,1.8,0,3.55-.29,5.29-.88,1.72-.59,3.05-1.12,3.98-1.61l.65,7.3c-.92,.56-2.51,1.17-4.73,1.8-2.21,.66-4.75,.98-7.58,.98Z"/>
            <path class="cls-2"
                  d="M1583.07,598.26l5.73-2.69,10.92,21-18.79,19.9-5.36-3.25,14.52-17.57-7.03-17.38Zm19.25,0l5.73-2.69,10.92,21-18.78,19.9-5.37-3.25,14.53-17.57-7.03-17.38Z"/>
            <path class="cls-2"
                  d="M1701.3,632.75c0,1.42,.12,2.85,.37,4.3,.24,1.45,.68,3.01,1.29,4.68l-7.58,1.12c-.68-1.37-1.21-3-1.57-4.92-1.37,1.23-3.18,2.46-5.46,3.7-2.29,1.25-5.08,1.85-8.42,1.85-2.73,0-5.06-.41-7.03-1.24-1.98-.84-3.61-2.03-4.9-3.57-1.31-1.53-2.27-3.36-2.88-5.51-.62-2.12-.92-4.45-.92-6.98,0-4.13,.69-8.16,2.08-12.12,1.38-3.94,3.46-7.46,6.19-10.54,2.75-3.09,6.19-5.56,10.32-7.45,4.14-1.88,8.95-2.82,14.42-2.82,.69,0,1.37,.03,2.04,.09,.69,.06,1.4,.17,2.15,.29l5.17-21.66,8.98-1.49-13.05,54.12c-.3,1.42-.6,2.77-.84,4.07-.25,1.3-.37,2.66-.37,4.07Zm-19.62,3.43c2.59,0,4.8-.55,6.61-1.63,1.82-1.06,3.41-2.33,4.77-3.74,.06-.98,.17-2.04,.32-3.17,.16-1.14,.39-2.4,.7-3.76l5.56-23.13c-.56-.11-1.18-.19-1.85-.24-.69-.02-1.33-.05-1.95-.05-3.51,0-6.69,.68-9.53,2.04-2.84,1.35-5.25,3.17-7.26,5.46-2,2.28-3.54,4.9-4.63,7.91-1.07,2.98-1.61,6.12-1.61,9.39,0,1.41,.14,2.77,.45,4.06,.31,1.3,.81,2.46,1.49,3.47,.68,1.02,1.6,1.84,2.73,2.46,1.13,.62,2.54,.92,4.2,.92Z"/>
            <path class="cls-2"
                  d="M1742.65,643.48c-3.15,0-5.87-.44-8.13-1.34-2.3-.89-4.21-2.12-5.75-3.7-1.53-1.58-2.68-3.4-3.43-5.51-.73-2.09-1.1-4.33-1.1-6.66,0-4.31,.64-8.47,1.95-12.48,1.29-4.01,3.15-7.56,5.55-10.64,2.4-3.09,5.33-5.54,8.78-7.35,3.45-1.82,7.36-2.74,11.74-2.74,2.54,0,4.71,.33,6.53,.97,1.82,.66,3.31,1.53,4.45,2.63,1.14,1.11,1.98,2.39,2.54,3.84,.55,1.46,.83,2.96,.83,4.49,0,2.91-.52,5.35-1.57,7.35-1.05,2-2.44,3.69-4.16,5.05-1.73,1.36-3.76,2.4-6.07,3.14-2.32,.74-4.72,1.33-7.23,1.76-2.49,.43-5.02,.72-7.58,.88-2.56,.15-4.98,.29-7.25,.41-.06,.5-.09,.9-.09,1.21v.73c0,1.43,.15,2.77,.49,4.03,.34,1.26,.97,2.36,1.9,3.32,.91,.96,2.21,1.72,3.84,2.27,1.63,.55,3.77,.83,6.42,.83,1.17,0,2.39-.1,3.66-.33,1.26-.21,2.47-.48,3.61-.83,1.13-.34,2.15-.68,3.05-1.02,.89-.33,1.51-.67,1.89-.97l.75,7.31c-1.23,.68-3.23,1.4-5.98,2.17-2.73,.77-5.96,1.15-9.66,1.15Zm-8.78-26.45c3.58-.13,6.84-.37,9.8-.69,2.95-.34,5.52-.93,7.66-1.76,2.17-.83,3.85-1.95,5.06-3.37,1.21-1.42,1.8-3.27,1.8-5.56,0-.55-.1-1.13-.32-1.75-.22-.61-.59-1.19-1.11-1.71-.52-.52-1.25-.96-2.18-1.3-.93-.33-2.07-.51-3.43-.51-2.16,0-4.17,.46-6.06,1.39-1.88,.91-3.56,2.14-5.04,3.66-1.47,1.51-2.74,3.26-3.79,5.27-1.04,2-1.85,4.12-2.4,6.34Z"/>
            <path class="cls-2"
                  d="M1791.21,636.27c1.29,0,2.62-.13,3.94-.37,1.32-.25,2.5-.64,3.52-1.2,1.02-.56,1.84-1.32,2.5-2.27,.63-.96,.96-2.15,.96-3.56,0-.93-.17-1.76-.47-2.46-.3-.71-.79-1.37-1.47-1.99-.69-.63-1.53-1.21-2.55-1.81-1.01-.58-2.23-1.25-3.65-1.98-1.42-.68-2.73-1.36-3.9-2.04-1.18-.68-2.2-1.47-3.08-2.4-.91-.93-1.6-2.03-2.09-3.29-.49-1.26-.74-2.78-.74-4.59,0-4.62,1.66-8.33,5-11.13,3.32-2.81,8.16-4.22,14.52-4.22,2.95,0,5.56,.29,7.82,.88,2.23,.58,3.81,1.13,4.67,1.62l-3.24,7.03c-.87-.49-2.25-1.03-4.17-1.57-1.91-.56-4.04-.83-6.38-.83-1.18,0-2.34,.11-3.52,.36-1.17,.26-2.23,.67-3.19,1.26-.96,.6-1.72,1.36-2.31,2.32-.58,.94-.89,2.11-.89,3.45,0,1.68,.66,3.04,1.95,4.13,1.3,1.07,3.25,2.2,5.84,3.37,1.59,.73,3.03,1.49,4.29,2.27,1.27,.76,2.34,1.63,3.24,2.58,.9,.96,1.57,2.1,2.04,3.39,.47,1.29,.69,2.82,.69,4.63,0,2.59-.49,4.86-1.47,6.84-.99,1.97-2.38,3.61-4.12,4.9-1.76,1.3-3.85,2.27-6.25,2.91-2.41,.66-5.02,.97-7.86,.97-2.1,0-3.99-.14-5.69-.41-1.69-.29-3.16-.61-4.44-.97-1.26-.37-2.31-.76-3.13-1.15-.84-.4-1.47-.74-1.9-.98l3.33-7.04c.42,.25,1.03,.56,1.8,.93,.77,.37,1.69,.75,2.77,1.11,1.07,.37,2.26,.68,3.56,.93,1.29,.25,2.65,.37,4.06,.37Z"/>
            <path class="cls-2"
                  d="M1835.14,642.28h-8.61l11.58-48.11h8.6l-11.57,48.11Zm9.99-56.8c-1.41,0-2.61-.43-3.57-1.29-.96-.87-1.42-2.07-1.42-3.61,0-1.98,.61-3.53,1.86-4.67,1.23-1.14,2.61-1.72,4.15-1.72,1.41,0,2.62,.46,3.61,1.34,.98,.89,1.47,2.14,1.47,3.74,0,1.85-.64,3.35-1.93,4.48-1.3,1.15-2.69,1.72-4.17,1.72Z"/>
            <path class="cls-2"
                  d="M1870.49,652.28c2.51,0,4.73-.33,6.65-.92,1.91-.62,3.55-1.53,4.95-2.7,1.38-1.18,2.51-2.56,3.36-4.16,.87-1.6,1.55-3.42,2.04-5.46l.37-1.75c-1.23,.67-2.9,1.36-4.99,2.03-2.1,.68-4.25,1.02-6.46,1.02-4.99,0-8.84-1.25-11.52-3.74-2.69-2.5-4.01-5.99-4.01-10.5,0-4.13,.67-8.17,2.02-12.12,1.35-3.94,3.42-7.46,6.19-10.55,2.78-3.08,6.23-5.56,10.36-7.44,4.14-1.88,8.98-2.83,14.53-2.83,.86,0,1.83,.06,2.9,.18,1.09,.14,2.19,.3,3.34,.52,1.14,.21,2.26,.51,3.33,.89,1.08,.36,2.03,.79,2.81,1.29l-10.07,42.09c-.8,3.32-1.8,6.32-2.97,8.98-1.17,2.64-2.77,4.9-4.8,6.75-2.04,1.84-4.67,3.29-7.87,4.3-3.2,1.02-7.21,1.53-12.02,1.53-2.66,0-5.27-.35-7.88-1.07-2.58-.72-4.77-1.58-6.55-2.64l3.24-7.2c1.41,1.04,3.28,1.88,5.63,2.54,2.34,.64,4.81,.98,7.42,.98Zm7.76-19.16c2.46,0,4.72-.44,6.8-1.34,2.07-.89,3.66-1.75,4.76-2.54l6.76-28.12c-.63-.13-1.33-.25-2.13-.37-.8-.11-1.57-.18-2.32-.18-3.32,0-6.37,.62-9.16,1.89-2.77,1.26-5.15,2.97-7.17,5.09-2,2.13-3.55,4.6-4.67,7.4-1.11,2.81-1.65,5.72-1.65,8.74,0,3.33,.72,5.73,2.17,7.22,1.45,1.49,3.66,2.22,6.61,2.22Z"/>
            <path class="cls-2"
                  d="M1927.54,642.28h-8.59l11.1-46.25c2.85-.86,5.91-1.57,9.21-2.08,3.3-.52,6.24-.79,8.84-.79,2.77,0,5.16,.4,7.17,1.16,2,.77,3.62,1.83,4.86,3.15,1.23,1.33,2.14,2.92,2.73,4.81,.59,1.89,.88,3.93,.88,6.15,0,1.42-.13,2.92-.37,4.49-.25,1.57-.55,3.17-.92,4.76l-5.92,24.61h-8.6l5.45-22.75c.44-1.73,.85-3.49,1.25-5.29,.41-1.77,.61-3.47,.61-5.08,0-2.46-.69-4.52-2.05-6.15-1.34-1.64-3.88-2.46-7.58-2.46-1.55,0-3.05,.1-4.52,.27-1.49,.19-2.72,.43-3.7,.74l-9.83,40.71Z"/>
            <g>
                <g>
                    <path class="cls-2"
                          d="M1129.11,278.78c-11.66,43.67-25.35,85.53-41.05,125.59-15.68,40.07-30.87,75.94-45.51,107.64h-37.7c-14.63-31.7-29.81-67.56-45.51-107.64-15.7-40.06-29.37-81.92-41.04-125.59h44.87c3.57,14.64,7.83,30.26,12.77,46.86,4.93,16.57,10.14,33.04,15.68,49.31,5.55,16.31,11.17,32.11,16.85,47.38,5.64,15.23,11.06,28.85,16.16,40.77,5.06-11.92,10.44-25.54,16.1-40.77,5.68-15.27,11.31-31.07,16.84-47.38,5.56-16.27,10.77-32.75,15.71-49.31,4.91-16.6,9.17-32.22,12.77-46.86h43.07Z"/>
                    <path class="cls-2"
                          d="M1371.73,395.39c0,18.55-2.63,35.3-8.02,50.25-5.4,14.94-12.93,27.82-22.63,38.56-9.77,10.75-21.33,19.07-34.8,24.91-13.47,5.77-28.1,8.71-43.95,8.71s-30.47-2.93-43.95-8.71c-13.45-5.84-25.05-14.17-34.78-24.91-9.72-10.75-17.27-23.63-22.64-38.56-5.37-14.95-8.07-31.7-8.07-50.25s2.69-34.89,8.07-50.01c5.37-15.09,12.92-28.05,22.64-38.79,9.73-10.76,21.33-19.06,34.78-24.92,13.48-5.8,28.11-8.74,43.95-8.74s30.49,2.94,43.95,8.74c13.48,5.86,25.03,14.17,34.8,24.92,9.7,10.73,17.23,23.7,22.63,38.79,5.39,15.12,8.02,31.78,8.02,50.01Zm-43.45,0c0-26.33-5.94-47.16-17.7-62.57-11.85-15.36-27.9-23.11-48.25-23.11s-36.39,7.75-48.25,23.11c-11.77,15.41-17.68,36.24-17.68,62.57s5.91,47.2,17.68,62.56c11.85,15.38,27.91,23.13,48.25,23.13s36.4-7.74,48.25-23.13c11.77-15.37,17.7-36.25,17.7-62.56Z"/>
                    <path class="cls-2"
                          d="M1500.51,516.49c-25.73-.58-43.97-6.13-54.73-16.61-10.76-10.45-16.14-26.77-16.14-48.88V163.96c25.76,0,41.66,14.64,41.66,43.41v236.93c0,6.9,.61,12.55,1.84,17.06,1.18,4.46,3.14,8.05,5.82,10.72,2.7,2.72,6.39,4.51,10.78,6.07,13.65,4.91,10.76,38.35,10.76,38.35Z"/>
                    <path class="cls-2"
                          d="M1735.03,278.78c-11.6,43.67-25.31,85.53-40.99,125.59-15.68,40.07-30.92,75.94-45.54,107.64h-37.67c-14.65-31.7-29.8-67.56-45.54-107.64-15.7-40.06-29.33-81.92-41.02-125.59h44.83c3.63,14.64,7.86,30.26,12.83,46.86,4.92,16.57,10.14,33.04,15.68,49.31,5.5,16.31,11.12,32.11,16.81,47.38,5.67,15.23,11.11,28.85,16.15,40.77,5.11-11.92,10.46-25.54,16.15-40.77,5.67-15.27,11.28-31.07,16.8-47.38,5.56-16.27,10.83-32.75,15.73-49.31,4.94-16.6,9.22-32.22,12.77-46.86h43.02Z"/>
                </g>
                <path class="cls-2"
                      d="M755.21,406.59h131.27c.28-2.38,.42-4.98,.42-7.82v-6.96c0-40.08-8.36-69.89-25.11-89.47-16.74-19.58-40.81-29.41-72.19-29.41-13.49,0-26.62,2.58-39.49,7.65-12.87,5.07-24.21,12.7-34.08,22.86-9.89,10.21-17.78,22.96-23.79,38.37-5.98,15.41-8.97,33.41-8.97,54.05,0,17.65,2.32,33.87,6.96,48.64,4.62,14.83,11.73,27.59,21.29,38.36,9.57,10.8,21.74,19.21,36.55,25.34,14.8,6.13,32.4,9.23,52.72,9.23,16.14,0,30.55-1.51,43.29-4.5,12.69-2.99,21.58-5.86,26.68-8.51l24.97-11.65c-5.76-18.99-19.59-28.04-30.82-23.35-5.18,2.16-12.62,4.84-22.64,7.4-10.03,2.54-22.35,3.8-36.97,3.8-26.04,0-45.16-6.26-57.44-18.8-12.26-12.61-19.28-30.98-21.1-55.21l.95-33.6c.87-8.1,2.73-16.02,5.56-23.79,2.87-7.76,6.83-14.63,11.92-20.61,5.1-6.02,11.26-10.85,18.59-14.61,7.33-3.73,15.81-5.61,25.34-5.61,17.04,0,30.43,6.05,40.15,18.17,9.75,12.12,14.4,27.59,14.13,46.45h-53.57c-25.04,0-34.61,20.6-34.61,33.6Z"/>
                <path class="cls-2"
                      d="M1829.75,406.59h131.27c.28-2.38,.42-4.98,.42-7.82v-6.96c0-40.08-8.36-69.89-25.11-89.47-16.74-19.58-40.81-29.41-72.19-29.41-13.49,0-26.62,2.58-39.49,7.65-12.87,5.07-24.21,12.7-34.08,22.86-9.89,10.21-17.78,22.96-23.79,38.37-5.98,15.41-8.97,33.41-8.97,54.05,0,17.65,2.32,33.87,6.96,48.64,4.62,14.83,11.73,27.59,21.29,38.36,9.57,10.8,21.74,19.21,36.55,25.34,14.8,6.13,32.4,9.23,52.72,9.23,16.14,0,30.55-1.51,43.29-4.5,12.69-2.99,21.58-5.86,26.68-8.51l24.98-11.65c-5.77-18.99-19.59-28.04-30.83-23.35-5.18,2.16-12.62,4.84-22.64,7.4-10.03,2.54-22.35,3.8-36.97,3.8-26.04,0-45.16-6.26-57.44-18.8-12.26-12.61-19.28-30.98-21.1-55.21l.95-33.6c.87-8.1,2.73-16.02,5.56-23.79,2.87-7.76,6.83-14.63,11.92-20.61,5.1-6.02,11.26-10.85,18.59-14.61,7.33-3.73,15.81-5.61,25.34-5.61,17.04,0,30.43,6.05,40.15,18.17,9.75,12.12,14.4,27.59,14.13,46.45h-53.57c-25.04,0-34.61,20.6-34.61,33.6Z"/>
            </g>
        </g>
    </g>
</svg>