<svg id="Plunjr_logo" data-name="Plunjr logo" xmlns="http://www.w3.org/2000/svg" width="180" height="143" viewBox="0 0 180 143">
  <path id="Trazado_16" data-name="Trazado 16" d="M134.532,77.666H123.988a12.729,12.729,0,0,0,9.5,10.836q.451.129.914.228h.081v.019l.189.023V80.3l-.138-.039Zm-80.177,0H43.8v38.053a16.573,16.573,0,0,1-33.145,0V94.347l-.08-5.6L0,88.742v27.009H0a27.326,27.326,0,0,0,54.652,0c.027-1.369.034-2.731.017-4.217ZM57.409,0A13.586,13.586,0,0,0,43.8,13.567V27.135H54.355V13.2a3.052,3.052,0,0,1,6.1,0V26.788h0V40.564H71.014v-27A13.586,13.586,0,0,0,57.409,0m43.038,89.278-.051-.01V102.2a2.95,2.95,0,0,1-5.9,0V89.291l-.051.011V77.666H83.892v24.668h.183a13.423,13.423,0,0,0,26.845,0H111V77.666H100.447Zm54.039-82.6a13.62,13.62,0,0,0-13.64,13.6V40.563H151.16V36.389h0V20.264a3.209,3.209,0,0,1,6.418,0h0V36.389h0v4.174h10.551V20.281a13.62,13.62,0,0,0-13.64-13.6" transform="translate(0.001)" fill="#1d72d8"/>
  <path id="Trazado_15" data-name="Trazado 15" d="M22.145,67.835a13.674,13.674,0,0,0-11.592,6.022v-5.33H0v48.178H10.553V100.784a14.3,14.3,0,0,0,11.592,5.538c8.816,0,16.939-6.784,16.939-19.174v-.138c0-12.391-8.261-19.175-16.939-19.175m6.387,19.313c0,6.23-4.165,10.245-9.094,10.245s-9.024-4.084-9.024-10.245v-.138c0-6.161,4.1-10.245,9.024-10.245s9.094,4.084,9.094,10.245ZM43.8,105.63H54.355V55.1H43.8ZM84,89.225c0,4.984-2.569,7.545-6.595,7.545s-6.387-2.561-6.387-7.545v-20.7H60.464V92.547c0,8.514,4.651,13.775,12.634,13.775,5.345,0,8.469-2.838,10.9-5.953v5.261H94.548v-37.1H84Zm56.645,14.952c0,3.114-1.528,4.292-3.749,4.292a12.7,12.7,0,0,1-2.221-.208v8.475a23.674,23.674,0,0,0,4.581.177c7.775,0,11.941-3.738,11.941-11.905V68.527H140.641ZM121.9,67.835c-5.346,0-8.47,2.838-10.9,5.953V68.527H100.448v37.1H111v-20.7c0-4.984,2.569-7.545,6.6-7.545s6.386,2.561,6.386,7.545v20.7h10.552V81.61c0-8.514-4.651-13.775-12.634-13.775M168.13,76V68.527H157.578v37.1H168.13V91.924c0-8.86,4.3-13.083,11.315-13.083H180V67.835c-6.247-.277-9.718,3.046-11.87,8.168" transform="translate(0 -27.964)" fill="#fff"/>
</svg>
